<svg width="25" height="27" viewBox="0 0 25 27" fill="none" xmlns="http://www.w3.org/2000/svg">
<path fill-rule="evenodd" clip-rule="evenodd" d="M5.12618 5.10372C5.1765 5.17557 6.34186 6.87294 7.71588 8.87563C9.0899 10.8783 10.3607 12.7304 10.54 12.9914C10.7192 13.2523 10.8659 13.4711 10.8659 13.4775C10.8659 13.4839 10.7991 13.5662 10.7175 13.6605C10.636 13.7547 10.4062 14.0214 10.207 14.2532C10.0077 14.485 9.67188 14.8757 9.46061 15.1214C9.24936 15.3671 8.87769 15.7995 8.63468 16.0823C8.39169 16.3651 7.95471 16.8735 7.66363 17.2121C6.76334 18.2594 6.63342 18.4107 5.94809 19.2094C5.58216 19.6359 5.23125 20.0437 5.16831 20.1156C5.10537 20.1875 5.05387 20.2539 5.05387 20.2631C5.05387 20.2739 5.28372 20.2799 5.70146 20.2799V20.2799C6.1125 20.2799 6.50302 20.1003 6.77058 19.7883L7.06098 19.4496C7.45256 18.993 7.83883 18.5435 7.91935 18.4508C8.09349 18.2503 9.42149 16.7041 9.53312 16.5718C9.57585 16.5212 9.63793 16.4492 9.67107 16.4117C9.70422 16.3742 9.96549 16.0705 10.2517 15.7367C10.5378 15.4029 10.7799 15.1217 10.7894 15.1117C10.7991 15.1017 10.9505 14.9253 11.1261 14.7197C11.3017 14.5142 11.4508 14.346 11.4574 14.346C11.464 14.346 12.3659 15.6526 13.4616 17.2497C14.5573 18.8467 15.4733 20.1817 15.4973 20.2163V20.2163C15.5245 20.2557 15.5693 20.2792 15.6171 20.2792L17.762 20.2795C19.5888 20.2798 19.9818 20.2759 19.9749 20.2577C19.9674 20.2384 18.9032 18.685 16.1729 14.7084C14.2074 11.8457 13.946 11.461 13.9535 11.4415C13.9608 11.4225 14.2285 11.1092 15.9886 9.05967C16.2905 8.70812 16.7067 8.22324 16.9135 7.98217C17.1202 7.74111 17.329 7.49836 17.3773 7.44273C17.4257 7.38709 17.6801 7.09124 17.9427 6.78527C18.2053 6.47931 18.6516 5.95942 18.9346 5.62997C19.2176 5.30051 19.4595 5.01795 19.4722 5.00202C19.494 4.97476 19.457 4.97307 18.8375 4.97307H18.6294C18.344 4.97307 18.0729 5.09777 17.8872 5.31444V5.31444C17.4979 5.76875 16.794 6.58802 16.5941 6.81953C16.5058 6.92182 16.3957 7.05038 16.3494 7.1052C16.303 7.16002 16.2116 7.26597 16.1462 7.34065C16.0809 7.41533 15.7514 7.79884 15.414 8.19289C15.0767 8.58694 14.7961 8.91314 14.7904 8.91778C14.7847 8.92241 14.7125 9.00631 14.6298 9.10424C14.4851 9.27551 14.3379 9.44696 13.6628 10.2304C13.3665 10.5743 13.3513 10.5891 13.3263 10.5575C13.3119 10.5392 12.4435 9.27538 11.3965 7.74888L10.0355 5.76448C9.69586 5.26935 9.13404 4.9734 8.53364 4.97335L5.19419 4.97308C5.12702 4.97308 5.08765 5.04869 5.12618 5.10372V5.10372ZM6.86595 6.0139C6.8827 6.03947 7.29917 6.63693 7.79147 7.34158C8.72515 8.67799 12.3941 13.9327 14.7537 17.3129C15.5077 18.3931 16.1338 19.2864 16.1451 19.298C16.1611 19.3147 16.3807 19.3183 17.1709 19.3149V19.3149C17.5959 19.3131 17.844 18.8347 17.6007 18.4862L15.5454 15.5429C14.0984 13.4706 12.0033 10.4704 10.8898 8.87563L9.11859 6.33918C8.95962 6.11153 8.69988 5.9754 8.42222 5.97421L6.8911 5.96764C6.86728 5.96754 6.85292 5.99397 6.86595 6.0139V6.0139Z" fill="#FAFAFA"/>
<path fill-rule="evenodd" clip-rule="evenodd" d="M0 19.9983C0 22.7604 2.23961 24.9992 5.00169 24.9983L19.9949 24.9932C22.755 24.9923 24.9923 22.755 24.9932 19.9949L24.9983 5.00168C24.9992 2.2396 22.7604 0 19.9983 0H5C2.23858 0 0 2.23858 0 5V19.9983ZM0.00837264 12.5084C0.00837264 19.3834 0.0102931 22.1959 0.0126348 18.7584C0.0149764 15.3209 0.0149764 9.69591 0.0126348 6.25842C0.0102931 2.82092 0.00837264 5.63343 0.00837264 12.5084ZM5.12618 5.10372C5.1765 5.17557 6.34186 6.87294 7.71588 8.87563C9.0899 10.8783 10.3607 12.7304 10.54 12.9914C10.7192 13.2523 10.8659 13.4711 10.8659 13.4775C10.8659 13.4839 10.7991 13.5662 10.7175 13.6605C10.636 13.7547 10.4062 14.0214 10.207 14.2532C10.0077 14.485 9.67188 14.8757 9.46061 15.1214C9.24936 15.3671 8.87769 15.7995 8.63468 16.0823C8.39169 16.3651 7.95471 16.8735 7.66363 17.2121C6.76334 18.2594 6.63342 18.4107 5.94809 19.2094C5.58216 19.6359 5.23125 20.0437 5.16831 20.1156C5.10537 20.1875 5.05387 20.2539 5.05387 20.2631C5.05387 20.2739 5.28372 20.2799 5.70146 20.2799V20.2799C6.1125 20.2799 6.50302 20.1003 6.77058 19.7883L7.06098 19.4496C7.45256 18.993 7.83883 18.5435 7.91935 18.4508C8.09349 18.2503 9.42149 16.7041 9.53312 16.5718C9.57585 16.5212 9.63793 16.4492 9.67107 16.4117C9.70422 16.3742 9.96549 16.0705 10.2517 15.7367C10.5378 15.4029 10.7799 15.1217 10.7894 15.1117C10.7991 15.1017 10.9505 14.9253 11.1261 14.7197C11.3017 14.5142 11.4508 14.346 11.4574 14.346C11.464 14.346 12.3659 15.6526 13.4616 17.2497C14.5573 18.8467 15.4733 20.1817 15.4973 20.2163V20.2163C15.5245 20.2557 15.5693 20.2792 15.6171 20.2792L17.762 20.2795C19.5888 20.2798 19.9818 20.2759 19.9749 20.2577C19.9674 20.2384 18.9032 18.685 16.1729 14.7084C14.2074 11.8457 13.946 11.461 13.9535 11.4415C13.9608 11.4225 14.2285 11.1092 15.9886 9.05967C16.2905 8.70812 16.7067 8.22324 16.9135 7.98217C17.1202 7.74111 17.329 7.49836 17.3773 7.44273C17.4257 7.38709 17.6801 7.09124 17.9427 6.78527C18.2053 6.47931 18.6516 5.95942 18.9346 5.62997C19.2176 5.30051 19.4595 5.01795 19.4722 5.00202C19.494 4.97476 19.457 4.97307 18.8375 4.97307H18.6294C18.344 4.97307 18.0729 5.09777 17.8872 5.31444V5.31444C17.4979 5.76875 16.794 6.58802 16.5941 6.81953C16.5058 6.92182 16.3957 7.05038 16.3494 7.1052C16.303 7.16002 16.2116 7.26597 16.1462 7.34065C16.0809 7.41533 15.7514 7.79884 15.414 8.19289C15.0767 8.58694 14.7961 8.91314 14.7904 8.91778C14.7847 8.92241 14.7125 9.00631 14.6298 9.10424C14.4851 9.27551 14.3379 9.44696 13.6628 10.2304C13.3665 10.5743 13.3513 10.5891 13.3263 10.5575C13.3119 10.5392 12.4435 9.27538 11.3965 7.74888L10.0355 5.76448C9.69586 5.26935 9.13404 4.9734 8.53364 4.97335L5.19419 4.97308C5.12702 4.97308 5.08765 5.04869 5.12618 5.10372V5.10372ZM6.86595 6.0139C6.8827 6.03947 7.29917 6.63693 7.79147 7.34158C8.72515 8.67799 12.3941 13.9327 14.7537 17.3129C15.5077 18.3931 16.1338 19.2864 16.1451 19.298C16.1611 19.3147 16.3807 19.3183 17.1709 19.3149V19.3149C17.5959 19.3131 17.844 18.8347 17.6007 18.4862L15.5454 15.5429C14.0984 13.4706 12.0033 10.4704 10.8898 8.87563L9.11859 6.33918C8.95962 6.11153 8.69988 5.9754 8.42222 5.97421L6.8911 5.96764C6.86728 5.96754 6.85292 5.99397 6.86595 6.0139V6.0139Z" fill="black"/>
</svg>
