<svg width="25" height="27" viewBox="0 0 25 27" fill="none" xmlns="http://www.w3.org/2000/svg">
<path fill-rule="evenodd" clip-rule="evenodd" d="M5.71608 4.69542C5.76238 4.76152 6.83451 6.3231 8.09861 8.16558C9.36271 10.0081 10.5319 11.712 10.6968 11.952C10.8617 12.1921 10.9966 12.3934 10.9966 12.3993C10.9966 12.4052 10.9352 12.4809 10.8601 12.5676C10.7851 12.6543 10.5737 12.8997 10.3904 13.113C10.2071 13.3262 9.89813 13.6857 9.70376 13.9117C9.50941 14.1377 9.16748 14.5356 8.94391 14.7957C8.72036 15.0559 8.31834 15.5236 8.05054 15.8351C7.22227 16.7987 7.10275 16.9378 6.47225 17.6727C6.13559 18.065 5.81275 18.4402 5.75485 18.5064C5.69694 18.5725 5.64956 18.6336 5.64956 18.6421C5.64956 18.652 5.86103 18.6575 6.24535 18.6575V18.6575C6.6235 18.6575 6.98277 18.4923 7.22893 18.2052L7.4961 17.8937C7.85635 17.4736 8.21172 17.06 8.2858 16.9747C8.44601 16.7903 9.66777 15.3678 9.77047 15.2461C9.80979 15.1995 9.8669 15.1332 9.89738 15.0988C9.92789 15.0643 10.1683 14.7849 10.4315 14.4778C10.6948 14.1707 10.9175 13.9119 10.9263 13.9027C10.9351 13.8936 11.0745 13.7313 11.236 13.5421C11.3976 13.353 11.5347 13.1983 11.5408 13.1983C11.5469 13.1983 12.3766 14.4004 13.3847 15.8697C14.3927 17.339 15.2355 18.5672 15.2575 18.599V18.599C15.2825 18.6352 15.3237 18.6568 15.3678 18.6568L17.3411 18.6572C19.0217 18.6574 19.3833 18.6539 19.3769 18.6371C19.37 18.6193 18.3909 17.1902 15.8791 13.5317C14.0708 10.898 13.8303 10.5441 13.8372 10.5262C13.8439 10.5087 14.0902 10.2204 15.7095 8.33489C15.9873 8.01147 16.3702 7.56538 16.5604 7.3436C16.7506 7.12182 16.9426 6.89849 16.9872 6.84731C17.0317 6.79613 17.2657 6.52394 17.5073 6.24245C17.7488 5.96096 18.1595 5.48266 18.4198 5.17957C18.6802 4.87647 18.9027 4.61651 18.9144 4.60185C18.9345 4.57678 18.9004 4.57523 18.3305 4.57523H18.139C17.8765 4.57523 17.6271 4.68995 17.4562 4.88928V4.88928C17.098 5.30725 16.4505 6.06098 16.2666 6.27397C16.1854 6.36808 16.084 6.48635 16.0414 6.53678C15.9988 6.58722 15.9147 6.68469 15.8545 6.7534C15.7944 6.8221 15.4912 7.17494 15.1809 7.53746C14.8705 7.89999 14.6124 8.20009 14.6072 8.20435C14.602 8.20862 14.5355 8.28581 14.4594 8.3759C14.3263 8.53347 14.1909 8.6912 13.5698 9.41197C13.2972 9.72835 13.2832 9.74194 13.2602 9.71286C13.247 9.69611 12.448 8.53335 11.4848 7.12897L10.2326 5.30333C9.92019 4.8478 9.40332 4.57552 8.85094 4.57548L5.77865 4.57524C5.71686 4.57523 5.68064 4.6448 5.71608 4.69542V4.69542ZM7.31667 5.53279C7.33208 5.55631 7.71524 6.10597 8.16815 6.75425C9.02714 7.98375 12.4026 12.8181 14.5734 15.9279C15.2671 16.9216 15.8431 17.7435 15.8535 17.7542C15.8682 17.7695 16.0702 17.7729 16.7972 17.7697V17.7697C17.1882 17.768 17.4165 17.3279 17.1926 17.0073L15.3017 14.2994C13.9705 12.393 12.0431 9.63274 11.0186 8.16558L9.3891 5.83205C9.24285 5.62261 9.00389 5.49736 8.74845 5.49627L7.33981 5.49023C7.3179 5.49014 7.30468 5.51445 7.31667 5.53279V5.53279Z" fill="#FAFAFA"/>
<path fill-rule="evenodd" clip-rule="evenodd" d="M1 17.9983C1 20.7604 3.23961 22.9992 6.00169 22.9983L18.9956 22.9939C21.7557 22.993 23.993 20.7557 23.9939 17.9956L23.9983 5.00168C23.9992 2.2396 21.7604 0 18.9983 0H6C3.23858 0 1 2.23858 1 5V17.9983ZM1.0077 11.5077C1.0077 17.8327 1.00947 20.4202 1.01162 17.2577C1.01378 14.0952 1.01378 8.92024 1.01162 5.75775C1.00947 2.59525 1.0077 5.18275 1.0077 11.5077ZM5.71608 4.69542C5.76238 4.76152 6.83451 6.3231 8.09861 8.16558C9.36271 10.0081 10.5319 11.712 10.6968 11.952C10.8617 12.1921 10.9966 12.3934 10.9966 12.3993C10.9966 12.4052 10.9352 12.4809 10.8601 12.5676C10.7851 12.6543 10.5737 12.8997 10.3904 13.113C10.2071 13.3262 9.89813 13.6857 9.70376 13.9117C9.50941 14.1377 9.16748 14.5356 8.94391 14.7957C8.72036 15.0559 8.31834 15.5236 8.05054 15.8351C7.22227 16.7987 7.10275 16.9378 6.47225 17.6727C6.13559 18.065 5.81275 18.4402 5.75485 18.5064C5.69694 18.5725 5.64956 18.6336 5.64956 18.6421C5.64956 18.652 5.86103 18.6575 6.24535 18.6575V18.6575C6.6235 18.6575 6.98277 18.4923 7.22893 18.2052L7.4961 17.8937C7.85635 17.4736 8.21172 17.06 8.2858 16.9747C8.44601 16.7903 9.66777 15.3678 9.77047 15.2461C9.80979 15.1995 9.8669 15.1332 9.89738 15.0988C9.92789 15.0643 10.1683 14.7849 10.4315 14.4778C10.6948 14.1707 10.9175 13.9119 10.9263 13.9027C10.9351 13.8936 11.0745 13.7313 11.236 13.5421C11.3976 13.353 11.5347 13.1983 11.5408 13.1983C11.5469 13.1983 12.3766 14.4004 13.3847 15.8697C14.3927 17.339 15.2355 18.5672 15.2575 18.599V18.599C15.2825 18.6352 15.3237 18.6568 15.3678 18.6568L17.3411 18.6572C19.0217 18.6574 19.3833 18.6539 19.3769 18.6371C19.37 18.6193 18.3909 17.1902 15.8791 13.5317C14.0708 10.898 13.8303 10.5441 13.8372 10.5262C13.8439 10.5087 14.0902 10.2204 15.7095 8.33489C15.9873 8.01147 16.3702 7.56538 16.5604 7.3436C16.7506 7.12182 16.9426 6.89849 16.9872 6.84731C17.0317 6.79613 17.2657 6.52394 17.5073 6.24245C17.7488 5.96096 18.1595 5.48266 18.4198 5.17957C18.6802 4.87647 18.9027 4.61651 18.9144 4.60185C18.9345 4.57678 18.9004 4.57523 18.3305 4.57523H18.139C17.8765 4.57523 17.6271 4.68995 17.4562 4.88928V4.88928C17.098 5.30725 16.4505 6.06098 16.2666 6.27397C16.1854 6.36808 16.084 6.48635 16.0414 6.53678C15.9988 6.58722 15.9147 6.68469 15.8545 6.7534C15.7944 6.8221 15.4912 7.17494 15.1809 7.53746C14.8705 7.89999 14.6124 8.20009 14.6072 8.20435C14.602 8.20862 14.5355 8.28581 14.4594 8.3759C14.3263 8.53347 14.1909 8.6912 13.5698 9.41197C13.2972 9.72835 13.2832 9.74194 13.2602 9.71286C13.247 9.69611 12.448 8.53335 11.4848 7.12897L10.2326 5.30333C9.92019 4.8478 9.40332 4.57552 8.85094 4.57548L5.77865 4.57524C5.71686 4.57523 5.68064 4.6448 5.71608 4.69542V4.69542ZM7.31667 5.53279C7.33208 5.55631 7.71524 6.10597 8.16815 6.75425C9.02714 7.98375 12.4026 12.8181 14.5734 15.9279C15.2671 16.9216 15.8431 17.7435 15.8535 17.7542C15.8682 17.7695 16.0702 17.7729 16.7972 17.7697V17.7697C17.1882 17.768 17.4165 17.3279 17.1926 17.0073L15.3017 14.2994C13.9705 12.393 12.0431 9.63274 11.0186 8.16558L9.3891 5.83205C9.24285 5.62261 9.00389 5.49736 8.74845 5.49627L7.33981 5.49023C7.3179 5.49014 7.30468 5.51445 7.31667 5.53279V5.53279Z" fill="#636363"/>
</svg>
